<?xml version="1.0" standalone="no"?>
<!DOCTYPE svg PUBLIC "-//W3C//DTD SVG 20010904//EN"
 "http://www.w3.org/TR/2001/REC-SVG-20010904/DTD/svg10.dtd">
<svg version="1.0" xmlns="http://www.w3.org/2000/svg"
 width="384.000000pt" height="384.000000pt" viewBox="0 0 384.000000 384.000000"
 preserveAspectRatio="xMidYMid meet">

<g transform="translate(0.000000,384.000000) scale(0.100000,-0.100000)"
fill="#000000" stroke="none">
<path d="M1760 3775 c-137 -13 -155 -15 -270 -41 -240 -53 -554 -206 -740
-361 -58 -48 -235 -225 -283 -283 -113 -135 -260 -405 -315 -575 -111 -349
-125 -672 -42 -1045 50 -230 202 -531 370 -735 32 -39 216 -223 255 -255 204
-168 505 -320 735 -370 114 -25 149 -31 297 -44 131 -12 175 -12 305 0 149 13
184 19 298 44 230 50 531 202 735 370 39 32 223 216 255 255 168 204 320 505
370 735 24 109 30 147 45 295 20 196 8 361 -42 590 -54 246 -200 539 -373 750
-32 39 -216 223 -255 255 -215 177 -508 321 -760 375 -141 30 -168 34 -260 40
-49 3 -112 7 -140 9 -27 2 -111 -2 -185 -9z m433 -146 c156 -32 284 -67 301
-81 6 -4 16 -8 23 -8 7 0 35 -10 61 -21 243 -110 381 -200 545 -358 128 -122
274 -321 341 -465 62 -132 76 -166 76 -180 0 -8 4 -17 9 -20 5 -3 11 -16 14
-28 3 -13 15 -59 26 -103 45 -170 54 -243 54 -445 0 -312 -47 -508 -193 -802
-161 -323 -487 -632 -810 -767 -30 -13 -68 -29 -85 -36 -50 -22 -165 -58 -270
-85 -56 -14 -140 -12 -202 4 -141 38 -242 120 -308 252 l-39 79 -4 232 -4 232
-71 16 c-149 34 -244 74 -356 148 -129 86 -208 163 -280 272 -83 124 -119 220
-141 371 -24 161 21 385 113 569 58 118 111 190 201 281 201 200 449 304 730
304 126 0 194 -11 324 -51 231 -72 439 -222 570 -412 28 -41 52 -78 52 -82 0
-4 8 -19 18 -33 20 -29 66 -139 88 -212 26 -85 37 -277 25 -406 -7 -66 -16
-132 -21 -149 -33 -103 -53 -161 -61 -169 -5 -6 -9 -16 -9 -23 0 -20 -83 -156
-149 -241 -129 -170 -385 -336 -566 -368 -102 -18 -157 -73 -159 -160 0 -60
18 -94 74 -131 48 -33 101 -30 245 15 70 22 202 76 227 93 14 11 29 19 32 19
7 0 157 99 166 109 3 3 22 19 43 34 82 62 245 247 287 327 7 14 16 27 19 30
17 13 94 177 122 261 62 184 79 285 79 479 0 195 -21 311 -87 500 -40 112
-130 277 -180 328 -7 7 -13 18 -13 23 0 23 -250 258 -333 312 -299 197 -653
281 -977 232 -117 -18 -158 -27 -285 -65 -80 -24 -263 -118 -325 -167 -8 -7
-40 -30 -70 -53 -144 -106 -300 -297 -388 -473 -65 -131 -82 -184 -133 -407
-17 -72 -17 -377 0 -450 6 -30 17 -75 23 -100 20 -85 60 -195 100 -277 42 -83
164 -255 234 -328 86 -90 241 -208 342 -260 62 -32 79 -57 63 -91 -14 -31 -56
-32 -107 -3 -40 22 -156 99 -164 108 -3 3 -30 25 -60 48 -72 55 -211 199 -278
288 -118 158 -209 371 -254 595 -17 85 -17 415 0 490 28 122 36 149 64 235 52
157 133 311 232 440 42 55 222 235 271 271 22 16 46 35 53 41 22 21 148 92
236 133 104 48 239 93 331 110 39 6 92 16 118 21 66 12 286 11 366 -2 134 -22
258 -52 326 -79 125 -50 315 -146 335 -170 3 -3 21 -17 40 -30 63 -44 74 -54
180 -160 152 -152 196 -212 284 -387 116 -230 158 -411 158 -673 0 -182 -12
-270 -61 -442 -40 -139 -168 -396 -227 -455 -7 -8 -21 -27 -31 -43 -32 -54
-247 -255 -339 -317 -107 -72 -290 -163 -389 -193 -38 -11 -84 -25 -101 -30
-17 -6 -60 -10 -96 -10 -75 0 -128 23 -184 78 -35 35 -74 125 -74 170 0 58 40
151 82 189 30 28 94 63 115 63 27 0 189 59 249 91 126 66 276 198 351 309 119
176 183 381 183 585 0 403 -233 742 -625 906 -96 40 -247 69 -363 69 -396 0
-740 -247 -885 -635 -40 -108 -52 -180 -52 -325 0 -125 3 -154 23 -214 61
-183 164 -316 326 -425 70 -47 195 -111 216 -111 5 0 18 -4 28 -9 17 -9 73
-25 124 -36 l27 -5 3 427 c3 449 2 440 47 496 41 51 162 68 234 34 21 -10 49
-36 64 -60 38 -58 39 -153 3 -212 -21 -34 -25 -52 -24 -125 1 -151 56 -220
167 -207 136 17 247 212 247 437 0 151 -55 276 -168 382 -162 150 -397 191
-589 102 -141 -65 -233 -172 -284 -328 -19 -59 -21 -84 -16 -173 6 -117 -4
-140 -52 -128 -34 9 -38 17 -46 97 -30 300 148 567 435 654 85 25 267 25 355
0 208 -60 360 -204 432 -408 23 -63 26 -90 27 -198 1 -125 -3 -147 -46 -270
-87 -247 -334 -355 -477 -207 -90 91 -117 279 -58 397 35 69 35 109 1 144 -19
19 -37 26 -64 26 -27 0 -45 -7 -64 -26 l-26 -27 0 -418 0 -419 33 -2 c231 -10
458 84 618 257 56 61 72 81 103 135 55 97 78 155 102 270 41 192 -10 410 -137
581 -93 125 -240 226 -409 279 -63 20 -96 24 -210 25 -115 0 -145 -3 -205 -23
-168 -56 -306 -152 -385 -267 -96 -141 -139 -275 -140 -435 0 -133 33 -232
100 -295 27 -26 39 -30 84 -30 48 0 57 4 85 33 43 46 54 97 57 242 1 125 4
136 51 239 21 46 100 124 152 151 112 56 216 65 329 26 115 -39 189 -103 241
-211 59 -122 58 -255 -4 -380 -31 -65 -57 -83 -91 -64 -32 17 -31 46 6 117 26
51 30 70 30 140 0 44 -6 93 -12 109 -63 145 -181 221 -326 211 -78 -6 -132
-30 -186 -84 -75 -75 -96 -137 -96 -285 0 -64 -5 -131 -11 -150 -32 -99 -68
-147 -134 -178 -145 -68 -296 35 -360 245 -18 59 -20 253 -3 321 25 104 93
274 117 293 3 3 19 24 34 46 58 86 176 185 294 247 216 114 514 114 752 0 209
-100 401 -318 449 -508 6 -22 16 -60 22 -84 30 -112 6 -387 -44 -506 -34 -82
-41 -95 -48 -95 -5 0 -8 -5 -8 -11 0 -21 -86 -135 -148 -196 -69 -68 -178
-146 -252 -180 -119 -54 -344 -102 -416 -88 l-34 6 0 -212 0 -211 30 -62 c38
-79 101 -146 165 -175 105 -47 162 -50 300 -16 114 29 142 38 238 79 189 81
351 192 506 347 175 175 316 394 385 599 63 190 87 341 88 550 0 206 -26 368
-86 545 -130 381 -453 742 -821 919 -131 63 -170 77 -307 109 -188 45 -217 49
-408 49 -191 0 -220 -4 -408 -49 -137 -32 -176 -46 -307 -109 -365 -176 -686
-533 -820 -913 -14 -41 -54 -203 -75 -305 -18 -86 -15 -401 4 -506 26 -145 67
-288 107 -379 44 -97 55 -118 93 -181 147 -245 330 -430 571 -577 104 -64 161
-80 218 -63 44 13 93 43 114 70 26 32 53 101 53 134 0 69 -55 156 -119 189
-158 81 -319 209 -435 346 -111 131 -202 315 -248 501 -17 72 -18 385 0 460
38 162 52 200 133 365 58 116 119 201 216 300 95 96 122 118 216 178 151 97
268 145 457 189 73 17 398 17 463 0 26 -6 68 -17 95 -23 148 -34 363 -142 487
-243 258 -212 409 -467 475 -804 13 -68 13 -349 0 -410 -6 -26 -15 -69 -21
-97 -28 -129 -111 -316 -199 -449 -62 -92 -219 -253 -310 -318 -139 -98 -343
-190 -471 -213 -42 -8 -69 12 -69 50 0 24 37 55 66 55 16 0 102 27 159 49 43
17 199 96 209 106 6 6 18 16 27 21 74 42 221 187 289 284 13 19 27 37 30 40
15 14 83 147 111 218 5 12 13 32 19 45 14 33 45 153 59 223 24 131 11 357 -30
509 -6 22 -13 50 -16 63 -3 12 -9 25 -14 28 -5 3 -9 12 -9 20 0 35 -116 243
-167 299 -10 11 -37 44 -61 72 -24 29 -78 80 -120 113 -42 33 -82 64 -88 69
-5 5 -21 14 -35 21 -13 7 -26 16 -29 20 -19 27 -257 117 -400 151 -84 20 -357
17 -448 -4 -166 -39 -306 -98 -425 -179 -76 -51 -243 -214 -277 -268 -14 -22
-28 -40 -32 -40 -4 0 -10 -9 -13 -20 -3 -11 -12 -26 -18 -32 -42 -44 -130
-272 -158 -408 -18 -85 -18 -348 0 -420 25 -106 106 -310 130 -330 3 -3 22
-27 41 -55 46 -67 194 -220 250 -258 25 -17 53 -39 63 -47 9 -9 30 -23 44 -31
124 -64 211 -136 241 -199 13 -26 17 -62 17 -140 0 -115 -12 -147 -81 -217
-62 -62 -108 -78 -219 -78 -95 0 -103 2 -160 34 -479 272 -778 693 -882 1241
-21 110 -23 446 -5 540 32 158 69 297 84 315 4 5 8 15 8 22 0 7 10 35 21 61
110 243 200 381 358 545 122 128 321 274 465 341 132 62 166 76 180 76 8 0 17
4 20 9 3 5 16 11 28 14 13 3 66 16 118 30 101 26 207 45 280 51 77 7 368 -4
423 -15z"/>
</g>
</svg>
